<?xml version="1.0" encoding="UTF-8"?>
<svg xmlns="http://www.w3.org/2000/svg" viewBox="0 0 1095 1095" width="1095" height="1095">
<path d="M744.5 397.03C757.75 405.05 773.79 411.9 787.86 418.61C809.38 428.87 830.36 440.25 851.8 450.66C862.56 455.88 873.25 461.23 883.99 466.49C889.68 469.27 896.7 471.8 901.42 476.06C904.26 478.62 905.9 482.26 908.1 485.34C913.97 493.54 919.45 502.05 925.04 510.45C933.15 522.65 941.32 534.82 949.53 546.95C953.48 552.78 958.1 558.96 954.81 566.3C952.26 572.01 946.07 573.9 940.81 576.36C930.46 581.21 920.23 586.41 909.99 591.51C896.68 598.14 883.51 605.09 870.13 611.61C866.11 613.57 858.74 618.77 854.5 619.02C850.11 619.28 844.82 616.98 840.44 616.29C831.85 614.92 823.22 613.63 814.5 613.29C790.12 612.36 765.55 616.95 742.67 625.23C707.54 637.93 677.91 662.82 656.81 693.29C652.13 700.05 647.83 707.34 644.27 714.75C642.44 718.56 641.08 723.62 638.43 726.92C636.14 729.77 629.14 733.41 625.5 733.23C622.11 733.06 619.82 730.09 617.65 727.85C613.21 723.28 608.6 718.89 604.06 714.44C587.57 698.28 571.2 681.94 554.93 665.57C550.08 660.7 538.13 651.82 536.93 645.5C541.22 640.56 552.91 636.57 559.09 633.56C576.35 625.14 593.67 616.86 610.93 608.44C649.37 589.69 687.95 571.14 726.84 553.37C749.07 543.21 770.82 531.89 792.91 521.43C811.2 512.77 829.43 503.97 847.62 495.11C854 492 867.9 487.24 872.19 482.5C829.49 461.36 786.79 440.23 744.08 419.09C744.08 455.21 744.08 491.32 744.08 527.44C736 531.13 727.93 534.81 719.85 538.5C719.85 454.03 719.85 369.57 719.85 285.1C711.28 283.93 702.17 284.62 693.5 284.63C678.83 284.64 664.17 284.55 649.5 284.63C637.14 284.7 624.08 286.22 613.11 279.41C597.25 269.56 597.59 254.13 597.57 237.5C597.53 210.89 598.56 184.08 597.44 157.5C590.83 156.02 583.33 156.85 576.5 156.84C563.17 156.83 549.83 156.89 536.5 156.86C494.17 156.78 451.83 156.83 409.5 156.86C395.5 156.87 381.5 156.97 367.5 156.85C360.94 156.79 353.89 156.11 349.51 162.03C345.16 167.89 347.12 182.28 347.13 189.5C347.14 213.17 347.1 236.83 347.13 260.5C347.2 323.83 347.19 387.17 347.12 450.5C347.09 470.17 347.16 489.83 347.15 509.5C347.15 518.46 348.61 530.55 346.5 539.02C338.58 535.18 330.66 531.34 322.75 527.5C322.75 491.34 322.75 455.17 322.75 419.01C315.48 420.13 300.36 428.89 292.85 432.39C269.31 443.35 246.01 454.86 222.62 466.13C214.73 469.93 206.81 473.66 198.92 477.44C195.31 479.17 190.59 480.46 188.2 483.5C242.16 509.38 296.82 533.78 350.74 559.74C378.38 573.05 406.36 585.7 433.5 600.02C453.19 610.41 473.04 620.63 492.99 630.5C499.02 633.49 516.65 640.85 519.99 645.5C518.88 650.82 511.88 655.66 507.99 659.49C498.57 668.73 489.15 677.99 479.87 687.37C468.27 699.09 456.36 710.53 444.97 722.46C441.67 725.91 434.07 735.29 429.45 735.84C423.95 736.5 417.48 731.12 412.8 728.67C399.27 721.59 385.81 714.37 372.36 707.14C321.13 679.57 269.96 651.82 218.11 625.41C191.32 611.77 164.4 598.35 137.4 585.12C129.77 581.38 122.06 577.81 114.44 574.05C110.98 572.35 107.25 570.74 105.51 567.02C101.96 559.46 106.47 553.19 110.64 547.17C118.72 535.53 126.57 523.69 134.37 511.85C139.79 503.64 145.27 495.44 150.84 487.32C154.07 482.62 156.76 477.36 161.51 473.99C164.73 471.7 168.77 470.52 172.31 468.78C181.5 464.27 190.83 460.02 200.03 455.53C227.17 442.29 254.32 428.98 281.7 416.22C291.01 411.88 300.33 407.56 309.58 403.09C313.79 401.07 318.98 399.49 322.54 396.5C323.72 376.62 322.75 356.41 322.73 336.5C322.71 296.83 322.67 257.17 322.71 217.5C322.72 205.17 322.73 192.83 322.73 180.5C322.73 168.17 322.46 156.21 330.53 146.06C343.12 130.23 359.14 131.81 377.5 131.77C407.17 131.71 436.83 131.72 466.5 131.75C497.5 131.77 528.5 131.72 559.5 131.76C572.4 131.78 594.73 129.91 606.44 133.17C618.25 136.45 634.75 156.76 643.42 166.1C666.84 191.31 690.92 215.93 714.47 241.02C723.04 250.16 739.52 263.96 742.73 275.69C745.57 286.05 744.11 297.83 744.09 308.5C744.05 328.17 744.08 347.83 744.11 367.5C744.13 377.11 742.93 387.58 744.5 397.03ZM509.71 261.39C516.2 260.41 523.06 260.68 529.46 262.16C552.2 267.39 565.46 287.4 567.56 309.72C568.84 323.25 565.98 337.36 571.19 350.34C575.29 360.54 581.79 368.74 587.53 377.96C595.24 390.34 602.26 402.73 606.73 416.71C609.58 425.59 611.18 435.15 611.12 444.5C611.09 448.63 609.63 453.35 610.25 457.39C610.98 462.1 616.37 464.26 619.67 466.85C623.81 470.11 627.66 475.34 628.79 480.56C629.43 483.5 629.47 486.53 629.11 489.5C626.81 508.5 607.64 509.74 594.06 516.55C586.49 520.34 579.86 527.01 571.45 528.81C563.99 530.41 555.72 529.66 549.35 525.11C546.06 522.77 544 518.99 540.32 517.2C535.25 514.74 528.97 515.71 523.5 515.72C515.06 515.73 498.48 514.25 491.05 516.53C487.05 517.76 485.3 521.2 482.28 523.8C477.58 527.84 470.78 530.19 464.57 529.64C455.16 528.8 448.98 522.53 440.87 518.61C424.31 510.59 400.31 509.3 402.87 484.5C403.52 478.23 406.43 472.77 411.16 468.64C414.42 465.8 419.85 463.03 420.81 458.42C421.56 454.84 420.29 451.1 420.17 447.5C419.95 441.09 420.96 434.16 422.48 427.95C426.67 410.82 435.09 395.01 445.01 380.54C449.07 374.62 453.75 369.1 457.42 362.92C461.9 355.38 465.43 347.14 466.71 338.42C468.02 329.55 466.56 320.42 467.21 311.5C468.55 293.07 477.05 275.26 494.05 266.54C498.9 264.05 504.31 262.2 509.71 261.39ZM514.5 320.08C511.05 318.27 511.14 315.18 509.69 311.77C507.47 306.59 502.35 302.5 496.5 302.95C494.62 303.1 492.9 303.86 491.31 304.82C484.61 308.85 483.03 317.07 483.46 324.34C483.84 330.77 486.2 336.64 487.56 342.85C489.53 351.78 489.9 361.51 487.77 370.44C481.82 395.35 461.23 414.08 457.37 439.65C454.84 456.43 464.85 458.23 472.96 469.58C478.2 476.92 478.64 486.41 483.96 493.55C491.23 503.31 510.56 502.39 521.5 501.82C531.3 501.32 541.81 499.87 547.03 490.54C549.9 485.39 550.89 479.37 553.58 474.1C558.24 464.99 570.71 459.7 573.02 449.47C574.73 441.93 571.82 433.28 569.3 426.26C561.99 405.87 544.66 389.32 541.05 367.5C539.91 360.59 539.94 353.61 541.38 346.74C542.29 342.39 544.4 338.52 545.76 334.34C548.83 324.91 549.48 311.53 540.26 305.25C533.56 300.69 524.62 303.23 520.83 310.35C518.7 314.37 519.43 318.83 514.5 320.08ZM180.5 624.42C187.81 626.11 195.04 631.3 201.7 634.79C215.03 641.79 228.44 648.65 241.69 655.8C282.4 677.78 323.14 699.68 363.87 721.61C379.27 729.9 394.6 738.37 410.16 746.36C418.12 750.45 425.12 755.14 434.45 752.82C442.81 750.74 452.43 738.21 458.57 732.07C471.91 718.74 485.26 705.41 498.75 692.25C504.08 687.05 512.44 676.74 518.66 673.5C521.53 678.23 519.95 690.48 519.94 696.5C519.9 715.83 519.93 735.17 519.95 754.5C520.01 805.5 520.03 856.5 519.94 907.5C519.91 923.83 519.99 940.17 519.95 956.5C519.93 964.47 520.88 973.07 519.5 980.9C513.54 980.92 508.71 977.71 503.56 974.96C496.17 971.04 488.89 966.91 481.48 963.03C450.55 946.78 419.95 929.92 389.22 913.32C343.11 888.41 297.18 863.14 250.85 838.64C239.31 832.54 227.75 826.46 216.25 820.28C206.17 814.86 196.68 810.22 190.02 800.45C178.97 784.23 179.98 766.31 180 747.5C180.03 722.83 180.04 698.17 180.01 673.5C180 663.17 180.02 652.83 180.01 642.5C179.99 636.64 179.28 630.14 180.5 624.42ZM796.67 630.43C816.22 628.88 835.79 631.45 854.58 636.79C872.87 641.99 890.4 650.51 905.68 661.85C921.32 673.45 935.08 687.41 945.86 703.68C960.35 725.54 970.11 751.38 972.97 777.5C980.31 844.36 945.68 909.99 887.23 942.7C865.73 954.72 841.94 960.96 817.5 962.74C797.6 964.19 777.2 961.39 758.25 955.34C681.79 930.92 632.64 854.32 643.21 774.51C645.44 757.74 650.26 741.28 657.49 725.99C664.82 710.47 674.14 695.95 685.9 683.4C697.99 670.5 711.72 659.22 727.32 650.81C748.94 639.16 772.18 632.36 796.67 630.43ZM537.5 672.98C544.12 676.86 549.61 684.04 555.07 689.43C568 702.17 580.99 714.86 593.82 727.69C599.31 733.19 610.57 746.71 617.15 749.39C621.62 751.2 625.85 750.87 630.5 751.12C630.48 756.5 628.2 762.2 627.28 767.56C625.31 779.05 624.62 790.85 625.07 802.5C626.13 830.29 633.63 857.39 646.48 882.01C650.16 889.06 654.46 895.91 659.05 902.4C660.98 905.12 663.28 907.58 664.88 910.5C659.59 915.7 641.91 923.87 634.5 928C614.2 939.32 594.16 951.13 573.76 962.28C563.84 967.7 547.96 979.24 537.5 981.26C535.32 974.57 536.62 965.65 536.6 958.5C536.56 943.17 536.63 927.83 536.62 912.5C536.56 860.83 536.58 809.17 536.63 757.5C536.65 738.5 536.64 719.5 536.64 700.5C536.64 692.42 534.99 680.4 537.5 672.98ZM840.08 786.5C838.04 780.65 839.38 772.77 839.32 766.5C839.19 751.5 839.39 736.5 839.3 721.5C839.26 714.75 841.51 702.23 832.33 700.28C828.61 699.49 824.29 700.08 820.5 700.07C811.17 700.06 801.83 700.08 792.5 700.04C787.46 700.01 781.59 699.15 778.11 703.67C774.43 708.46 776.21 721.42 776.21 727.5C776.2 740.17 776.2 752.83 776.21 765.5C776.21 772.42 776.83 779.7 775.77 786.5C765.62 787.73 754.75 786.72 744.5 786.73C740.01 786.73 734.81 786.23 732.2 790.71C727.7 798.44 740.34 807.36 745.24 812.26C759.24 826.26 773.59 839.91 787.59 853.91C793.01 859.32 799.21 867.77 807.5 868.04C816.29 868.32 823.33 859.19 828.85 853.32C842.24 839.08 857.02 826.16 870.58 812.07C875.39 807.07 888.09 799.03 883.51 790.95C880.8 786.18 875.22 786.77 870.5 786.72C860.44 786.6 850.07 787.49 840.08 786.5ZM726.69 880.31C712.92 883.23 712.5 904.27 726.5 907.06C730.99 907.95 735.94 907.35 740.5 907.35C750.5 907.35 760.5 907.37 770.5 907.36C800.17 907.33 829.83 907.45 859.5 907.37C865.17 907.35 870.83 907.32 876.5 907.34C886.17 907.35 898.35 908.24 899.55 895.31C901.42 875.15 873.83 879.94 861.5 879.93C831.17 879.91 800.83 879.88 770.5 879.94C760.5 879.96 750.5 879.94 740.5 879.96C736.03 879.97 731.08 879.38 726.69 880.31Z" fill="#9f30cf" fill-rule="evenodd" stroke="#9f30cf" stroke-width="0.25" stroke-linejoin="round"/>
</svg>